<mxfile host="Electron" agent="Mozilla/5.0 (Windows NT 10.0; Win64; x64) AppleWebKit/537.36 (KHTML, like Gecko) draw.io/24.7.17 Chrome/128.0.6613.36 Electron/32.0.1 Safari/537.36" version="24.7.17">
  <diagram name="Trang-1" id="aR7fLO6s7UQVaGggUBqw">
    <mxGraphModel dx="2193" dy="2011" grid="1" gridSize="10" guides="1" tooltips="1" connect="1" arrows="1" fold="1" page="1" pageScale="1" pageWidth="827" pageHeight="1169" math="0" shadow="0">
      <root>
        <mxCell id="0" />
        <mxCell id="1" parent="0" />
        <mxCell id="LQCwbnCenOOeZ457Ust4-1" value="Members" style="rounded=0;whiteSpace=wrap;html=1;" parent="1" vertex="1">
          <mxGeometry x="340" y="300" width="120" height="60" as="geometry" />
        </mxCell>
        <mxCell id="LQCwbnCenOOeZ457Ust4-3" value="memberid" style="ellipse;whiteSpace=wrap;html=1;perimeterSpacing=0;fontStyle=4" parent="1" vertex="1">
          <mxGeometry x="270" y="400" width="70" height="50" as="geometry" />
        </mxCell>
        <mxCell id="LQCwbnCenOOeZ457Ust4-4" value="" style="endArrow=none;html=1;rounded=0;exitX=0;exitY=1;exitDx=0;exitDy=0;" parent="1" source="LQCwbnCenOOeZ457Ust4-1" target="LQCwbnCenOOeZ457Ust4-8" edge="1">
          <mxGeometry width="50" height="50" relative="1" as="geometry">
            <mxPoint x="400" y="360" as="sourcePoint" />
            <mxPoint x="400" y="360" as="targetPoint" />
          </mxGeometry>
        </mxCell>
        <mxCell id="LQCwbnCenOOeZ457Ust4-6" value="" style="endArrow=none;html=1;rounded=0;exitX=1;exitY=1;exitDx=0;exitDy=0;" parent="1" source="LQCwbnCenOOeZ457Ust4-1" target="LQCwbnCenOOeZ457Ust4-7" edge="1">
          <mxGeometry width="50" height="50" relative="1" as="geometry">
            <mxPoint x="400" y="360" as="sourcePoint" />
            <mxPoint x="440" y="400" as="targetPoint" />
          </mxGeometry>
        </mxCell>
        <mxCell id="LQCwbnCenOOeZ457Ust4-7" value="m_name" style="ellipse;whiteSpace=wrap;html=1;" parent="1" vertex="1">
          <mxGeometry x="500" y="370" width="60" height="40" as="geometry" />
        </mxCell>
        <mxCell id="LQCwbnCenOOeZ457Ust4-8" value="email" style="ellipse;whiteSpace=wrap;html=1;" parent="1" vertex="1">
          <mxGeometry x="250" y="350" width="65" height="40" as="geometry" />
        </mxCell>
        <mxCell id="LQCwbnCenOOeZ457Ust4-9" value="MembershipPlans" style="rounded=0;whiteSpace=wrap;html=1;" parent="1" vertex="1">
          <mxGeometry x="840" y="297.5" width="123" height="65" as="geometry" />
        </mxCell>
        <mxCell id="LQCwbnCenOOeZ457Ust4-10" value="price" style="ellipse;whiteSpace=wrap;html=1;" parent="1" vertex="1">
          <mxGeometry x="1030" y="385" width="60" height="50" as="geometry" />
        </mxCell>
        <mxCell id="LQCwbnCenOOeZ457Ust4-11" value="status" style="ellipse;whiteSpace=wrap;html=1;" parent="1" vertex="1">
          <mxGeometry x="970" y="410" width="60" height="50" as="geometry" />
        </mxCell>
        <mxCell id="LQCwbnCenOOeZ457Ust4-12" value="memberid" style="ellipse;whiteSpace=wrap;html=1;" parent="1" vertex="1">
          <mxGeometry x="893" y="410" width="70" height="50" as="geometry" />
        </mxCell>
        <mxCell id="LQCwbnCenOOeZ457Ust4-13" value="planType" style="ellipse;whiteSpace=wrap;html=1;" parent="1" vertex="1">
          <mxGeometry x="1025" y="330" width="70" height="50" as="geometry" />
        </mxCell>
        <mxCell id="LQCwbnCenOOeZ457Ust4-14" value="planid" style="ellipse;whiteSpace=wrap;html=1;fontStyle=4" parent="1" vertex="1">
          <mxGeometry x="970" y="170" width="60" height="50" as="geometry" />
        </mxCell>
        <mxCell id="LQCwbnCenOOeZ457Ust4-15" value="Day_End" style="ellipse;whiteSpace=wrap;html=1;" parent="1" vertex="1">
          <mxGeometry x="1030" y="280" width="60" height="40" as="geometry" />
        </mxCell>
        <mxCell id="LQCwbnCenOOeZ457Ust4-16" value="Day_Start" style="ellipse;whiteSpace=wrap;html=1;" parent="1" vertex="1">
          <mxGeometry x="1025" y="220" width="70" height="50" as="geometry" />
        </mxCell>
        <mxCell id="LQCwbnCenOOeZ457Ust4-17" value="" style="endArrow=none;html=1;rounded=0;entryX=0.5;entryY=1;entryDx=0;entryDy=0;exitX=0.429;exitY=0;exitDx=0;exitDy=0;exitPerimeter=0;" parent="1" source="LQCwbnCenOOeZ457Ust4-12" target="LQCwbnCenOOeZ457Ust4-9" edge="1">
          <mxGeometry width="50" height="50" relative="1" as="geometry">
            <mxPoint x="550" y="410" as="sourcePoint" />
            <mxPoint x="600" y="360" as="targetPoint" />
          </mxGeometry>
        </mxCell>
        <mxCell id="LQCwbnCenOOeZ457Ust4-18" value="" style="endArrow=none;html=1;rounded=0;entryX=0.5;entryY=1;entryDx=0;entryDy=0;exitX=0.5;exitY=0;exitDx=0;exitDy=0;" parent="1" source="LQCwbnCenOOeZ457Ust4-11" target="LQCwbnCenOOeZ457Ust4-9" edge="1">
          <mxGeometry width="50" height="50" relative="1" as="geometry">
            <mxPoint x="550" y="410" as="sourcePoint" />
            <mxPoint x="600" y="360" as="targetPoint" />
          </mxGeometry>
        </mxCell>
        <mxCell id="LQCwbnCenOOeZ457Ust4-19" value="" style="endArrow=none;html=1;rounded=0;entryX=1;entryY=0.5;entryDx=0;entryDy=0;exitX=0;exitY=0;exitDx=0;exitDy=0;" parent="1" source="LQCwbnCenOOeZ457Ust4-10" target="LQCwbnCenOOeZ457Ust4-9" edge="1">
          <mxGeometry width="50" height="50" relative="1" as="geometry">
            <mxPoint x="550" y="410" as="sourcePoint" />
            <mxPoint x="600" y="360" as="targetPoint" />
          </mxGeometry>
        </mxCell>
        <mxCell id="LQCwbnCenOOeZ457Ust4-20" value="" style="endArrow=none;html=1;rounded=0;entryX=1;entryY=0.5;entryDx=0;entryDy=0;exitX=0;exitY=0.5;exitDx=0;exitDy=0;" parent="1" source="LQCwbnCenOOeZ457Ust4-13" target="LQCwbnCenOOeZ457Ust4-9" edge="1">
          <mxGeometry width="50" height="50" relative="1" as="geometry">
            <mxPoint x="550" y="410" as="sourcePoint" />
            <mxPoint x="600" y="360" as="targetPoint" />
          </mxGeometry>
        </mxCell>
        <mxCell id="LQCwbnCenOOeZ457Ust4-21" value="" style="endArrow=none;html=1;rounded=0;entryX=1;entryY=0.5;entryDx=0;entryDy=0;exitX=0;exitY=0.5;exitDx=0;exitDy=0;" parent="1" source="LQCwbnCenOOeZ457Ust4-15" target="LQCwbnCenOOeZ457Ust4-9" edge="1">
          <mxGeometry width="50" height="50" relative="1" as="geometry">
            <mxPoint x="550" y="410" as="sourcePoint" />
            <mxPoint x="600" y="360" as="targetPoint" />
          </mxGeometry>
        </mxCell>
        <mxCell id="LQCwbnCenOOeZ457Ust4-22" value="" style="endArrow=none;html=1;rounded=0;entryX=1;entryY=0.5;entryDx=0;entryDy=0;exitX=0;exitY=1;exitDx=0;exitDy=0;" parent="1" source="LQCwbnCenOOeZ457Ust4-16" target="LQCwbnCenOOeZ457Ust4-9" edge="1">
          <mxGeometry width="50" height="50" relative="1" as="geometry">
            <mxPoint x="550" y="410" as="sourcePoint" />
            <mxPoint x="600" y="360" as="targetPoint" />
          </mxGeometry>
        </mxCell>
        <mxCell id="LQCwbnCenOOeZ457Ust4-23" value="" style="endArrow=none;html=1;rounded=0;entryX=1;entryY=0.5;entryDx=0;entryDy=0;exitX=0.65;exitY=1.008;exitDx=0;exitDy=0;exitPerimeter=0;" parent="1" source="LQCwbnCenOOeZ457Ust4-14" target="LQCwbnCenOOeZ457Ust4-9" edge="1">
          <mxGeometry width="50" height="50" relative="1" as="geometry">
            <mxPoint x="550" y="410" as="sourcePoint" />
            <mxPoint x="600" y="360" as="targetPoint" />
          </mxGeometry>
        </mxCell>
        <mxCell id="LQCwbnCenOOeZ457Ust4-24" value="m" style="endArrow=none;html=1;rounded=0;exitX=1;exitY=0.5;exitDx=0;exitDy=0;entryX=0;entryY=0.5;entryDx=0;entryDy=0;" parent="1" source="LQCwbnCenOOeZ457Ust4-1" target="LQCwbnCenOOeZ457Ust4-25" edge="1">
          <mxGeometry width="50" height="50" relative="1" as="geometry">
            <mxPoint x="550" y="410" as="sourcePoint" />
            <mxPoint x="560" y="330" as="targetPoint" />
          </mxGeometry>
        </mxCell>
        <mxCell id="LQCwbnCenOOeZ457Ust4-25" value="Belongsto" style="rhombus;whiteSpace=wrap;html=1;" parent="1" vertex="1">
          <mxGeometry x="590" y="290" width="110" height="80" as="geometry" />
        </mxCell>
        <mxCell id="LQCwbnCenOOeZ457Ust4-27" value="1" style="endArrow=none;html=1;rounded=0;entryX=1;entryY=0.5;entryDx=0;entryDy=0;exitX=0;exitY=0.5;exitDx=0;exitDy=0;" parent="1" source="LQCwbnCenOOeZ457Ust4-9" target="LQCwbnCenOOeZ457Ust4-25" edge="1">
          <mxGeometry width="50" height="50" relative="1" as="geometry">
            <mxPoint x="550" y="410" as="sourcePoint" />
            <mxPoint x="600" y="360" as="targetPoint" />
          </mxGeometry>
        </mxCell>
        <mxCell id="LQCwbnCenOOeZ457Ust4-28" value="1" style="endArrow=none;html=1;rounded=0;exitX=0.5;exitY=0;exitDx=0;exitDy=0;" parent="1" source="LQCwbnCenOOeZ457Ust4-1" edge="1">
          <mxGeometry width="50" height="50" relative="1" as="geometry">
            <mxPoint x="210" y="300" as="sourcePoint" />
            <mxPoint x="400" y="180" as="targetPoint" />
          </mxGeometry>
        </mxCell>
        <mxCell id="LQCwbnCenOOeZ457Ust4-29" value="Belongsto" style="rhombus;whiteSpace=wrap;html=1;" parent="1" vertex="1">
          <mxGeometry x="360" y="120" width="80" height="80" as="geometry" />
        </mxCell>
        <mxCell id="LQCwbnCenOOeZ457Ust4-30" value="m" style="endArrow=none;html=1;rounded=0;exitX=0.5;exitY=0;exitDx=0;exitDy=0;" parent="1" source="LQCwbnCenOOeZ457Ust4-29" target="LQCwbnCenOOeZ457Ust4-31" edge="1">
          <mxGeometry width="50" height="50" relative="1" as="geometry">
            <mxPoint x="210" y="60" as="sourcePoint" />
            <mxPoint x="400" y="-30" as="targetPoint" />
            <mxPoint as="offset" />
          </mxGeometry>
        </mxCell>
        <mxCell id="LQCwbnCenOOeZ457Ust4-31" value="MemberProgress" style="rounded=0;whiteSpace=wrap;html=1;" parent="1" vertex="1">
          <mxGeometry x="340" y="-60" width="120" height="60" as="geometry" />
        </mxCell>
        <mxCell id="LQCwbnCenOOeZ457Ust4-32" value="bodyweight" style="ellipse;whiteSpace=wrap;html=1;" parent="1" vertex="1">
          <mxGeometry x="540" y="-140" width="80" height="50" as="geometry" />
        </mxCell>
        <mxCell id="LQCwbnCenOOeZ457Ust4-33" value="memberid" style="ellipse;whiteSpace=wrap;html=1;" parent="1" vertex="1">
          <mxGeometry x="190" y="-80" width="70" height="50" as="geometry" />
        </mxCell>
        <mxCell id="LQCwbnCenOOeZ457Ust4-34" value="BMI" style="ellipse;whiteSpace=wrap;html=1;" parent="1" vertex="1">
          <mxGeometry x="230" y="-140" width="70" height="45" as="geometry" />
        </mxCell>
        <mxCell id="LQCwbnCenOOeZ457Ust4-35" value="muscleTrain" style="ellipse;whiteSpace=wrap;html=1;" parent="1" vertex="1">
          <mxGeometry x="490" y="-200" width="80" height="50" as="geometry" />
        </mxCell>
        <mxCell id="LQCwbnCenOOeZ457Ust4-36" value="height" style="ellipse;whiteSpace=wrap;html=1;" parent="1" vertex="1">
          <mxGeometry x="580" y="-70" width="70" height="50" as="geometry" />
        </mxCell>
        <mxCell id="LQCwbnCenOOeZ457Ust4-37" value="progressDay" style="ellipse;whiteSpace=wrap;html=1;" parent="1" vertex="1">
          <mxGeometry x="390" y="-210" width="80" height="60" as="geometry" />
        </mxCell>
        <mxCell id="LQCwbnCenOOeZ457Ust4-38" value="progressid" style="ellipse;whiteSpace=wrap;html=1;fontStyle=4" parent="1" vertex="1">
          <mxGeometry x="290" y="-200" width="70" height="50" as="geometry" />
        </mxCell>
        <mxCell id="LQCwbnCenOOeZ457Ust4-39" value="" style="endArrow=none;html=1;rounded=0;exitX=0;exitY=0.5;exitDx=0;exitDy=0;entryX=0.991;entryY=0.612;entryDx=0;entryDy=0;entryPerimeter=0;" parent="1" source="LQCwbnCenOOeZ457Ust4-31" target="LQCwbnCenOOeZ457Ust4-33" edge="1">
          <mxGeometry width="50" height="50" relative="1" as="geometry">
            <mxPoint x="440" as="sourcePoint" />
            <mxPoint x="490" y="-50" as="targetPoint" />
          </mxGeometry>
        </mxCell>
        <mxCell id="LQCwbnCenOOeZ457Ust4-40" value="" style="endArrow=none;html=1;rounded=0;exitX=0;exitY=0.5;exitDx=0;exitDy=0;entryX=0.786;entryY=0.929;entryDx=0;entryDy=0;entryPerimeter=0;" parent="1" source="LQCwbnCenOOeZ457Ust4-31" target="LQCwbnCenOOeZ457Ust4-34" edge="1">
          <mxGeometry width="50" height="50" relative="1" as="geometry">
            <mxPoint x="440" as="sourcePoint" />
            <mxPoint x="490" y="-50" as="targetPoint" />
          </mxGeometry>
        </mxCell>
        <mxCell id="LQCwbnCenOOeZ457Ust4-41" value="" style="endArrow=none;html=1;rounded=0;exitX=0.5;exitY=0;exitDx=0;exitDy=0;entryX=0.694;entryY=0.948;entryDx=0;entryDy=0;entryPerimeter=0;" parent="1" source="LQCwbnCenOOeZ457Ust4-31" target="LQCwbnCenOOeZ457Ust4-38" edge="1">
          <mxGeometry width="50" height="50" relative="1" as="geometry">
            <mxPoint x="440" as="sourcePoint" />
            <mxPoint x="490" y="-50" as="targetPoint" />
          </mxGeometry>
        </mxCell>
        <mxCell id="LQCwbnCenOOeZ457Ust4-42" value="" style="endArrow=none;html=1;rounded=0;exitX=0.5;exitY=0;exitDx=0;exitDy=0;entryX=0.5;entryY=1;entryDx=0;entryDy=0;" parent="1" source="LQCwbnCenOOeZ457Ust4-31" target="LQCwbnCenOOeZ457Ust4-37" edge="1">
          <mxGeometry width="50" height="50" relative="1" as="geometry">
            <mxPoint x="440" as="sourcePoint" />
            <mxPoint x="490" y="-50" as="targetPoint" />
          </mxGeometry>
        </mxCell>
        <mxCell id="LQCwbnCenOOeZ457Ust4-43" value="" style="endArrow=none;html=1;rounded=0;exitX=0.5;exitY=0;exitDx=0;exitDy=0;entryX=0;entryY=1;entryDx=0;entryDy=0;" parent="1" source="LQCwbnCenOOeZ457Ust4-31" target="LQCwbnCenOOeZ457Ust4-35" edge="1">
          <mxGeometry width="50" height="50" relative="1" as="geometry">
            <mxPoint x="440" as="sourcePoint" />
            <mxPoint x="490" y="-50" as="targetPoint" />
          </mxGeometry>
        </mxCell>
        <mxCell id="LQCwbnCenOOeZ457Ust4-44" value="" style="endArrow=none;html=1;rounded=0;exitX=1;exitY=0.5;exitDx=0;exitDy=0;entryX=0;entryY=0.5;entryDx=0;entryDy=0;" parent="1" source="LQCwbnCenOOeZ457Ust4-31" target="LQCwbnCenOOeZ457Ust4-32" edge="1">
          <mxGeometry width="50" height="50" relative="1" as="geometry">
            <mxPoint x="440" as="sourcePoint" />
            <mxPoint x="490" y="-50" as="targetPoint" />
          </mxGeometry>
        </mxCell>
        <mxCell id="LQCwbnCenOOeZ457Ust4-45" value="" style="endArrow=none;html=1;rounded=0;entryX=0;entryY=0.5;entryDx=0;entryDy=0;exitX=1;exitY=0.5;exitDx=0;exitDy=0;" parent="1" source="LQCwbnCenOOeZ457Ust4-31" target="LQCwbnCenOOeZ457Ust4-36" edge="1">
          <mxGeometry width="50" height="50" relative="1" as="geometry">
            <mxPoint x="440" as="sourcePoint" />
            <mxPoint x="490" y="-50" as="targetPoint" />
          </mxGeometry>
        </mxCell>
        <mxCell id="LQCwbnCenOOeZ457Ust4-46" value="TraningSessions" style="rounded=0;whiteSpace=wrap;html=1;" parent="1" vertex="1">
          <mxGeometry x="-160" y="300" width="120" height="60" as="geometry" />
        </mxCell>
        <mxCell id="LQCwbnCenOOeZ457Ust4-47" value="memberid" style="ellipse;whiteSpace=wrap;html=1;" parent="1" vertex="1">
          <mxGeometry x="-30" y="220" width="80" height="60" as="geometry" />
        </mxCell>
        <mxCell id="LQCwbnCenOOeZ457Ust4-48" value="trainerid" style="ellipse;whiteSpace=wrap;html=1;" parent="1" vertex="1">
          <mxGeometry x="-30" y="160" width="80" height="50" as="geometry" />
        </mxCell>
        <mxCell id="LQCwbnCenOOeZ457Ust4-49" value="sessionLocation" style="ellipse;whiteSpace=wrap;html=1;" parent="1" vertex="1">
          <mxGeometry x="-140" y="110" width="110" height="75" as="geometry" />
        </mxCell>
        <mxCell id="LQCwbnCenOOeZ457Ust4-50" value="Day_End" style="ellipse;whiteSpace=wrap;html=1;" parent="1" vertex="1">
          <mxGeometry x="-230" y="110" width="80" height="60" as="geometry" />
        </mxCell>
        <mxCell id="LQCwbnCenOOeZ457Ust4-51" value="Day_Start" style="ellipse;whiteSpace=wrap;html=1;" parent="1" vertex="1">
          <mxGeometry x="-255" y="180" width="70" height="50" as="geometry" />
        </mxCell>
        <mxCell id="LQCwbnCenOOeZ457Ust4-52" value="sessionid" style="ellipse;whiteSpace=wrap;html=1;fontStyle=4" parent="1" vertex="1">
          <mxGeometry x="-265" y="250" width="80" height="50" as="geometry" />
        </mxCell>
        <mxCell id="LQCwbnCenOOeZ457Ust4-53" value="" style="endArrow=none;html=1;rounded=0;exitX=0.003;exitY=0.417;exitDx=0;exitDy=0;exitPerimeter=0;entryX=0.5;entryY=1;entryDx=0;entryDy=0;" parent="1" source="LQCwbnCenOOeZ457Ust4-46" target="LQCwbnCenOOeZ457Ust4-52" edge="1">
          <mxGeometry width="50" height="50" relative="1" as="geometry">
            <mxPoint x="-70" y="280" as="sourcePoint" />
            <mxPoint x="-20" y="230" as="targetPoint" />
          </mxGeometry>
        </mxCell>
        <mxCell id="LQCwbnCenOOeZ457Ust4-54" value="" style="endArrow=none;html=1;rounded=0;exitX=0.5;exitY=0;exitDx=0;exitDy=0;entryX=0.963;entryY=0.708;entryDx=0;entryDy=0;entryPerimeter=0;" parent="1" source="LQCwbnCenOOeZ457Ust4-46" target="LQCwbnCenOOeZ457Ust4-51" edge="1">
          <mxGeometry width="50" height="50" relative="1" as="geometry">
            <mxPoint x="-70" y="280" as="sourcePoint" />
            <mxPoint x="-20" y="230" as="targetPoint" />
          </mxGeometry>
        </mxCell>
        <mxCell id="LQCwbnCenOOeZ457Ust4-57" value="" style="endArrow=none;html=1;rounded=0;exitX=0.5;exitY=0;exitDx=0;exitDy=0;entryX=0.75;entryY=0.97;entryDx=0;entryDy=0;entryPerimeter=0;" parent="1" source="LQCwbnCenOOeZ457Ust4-46" target="LQCwbnCenOOeZ457Ust4-50" edge="1">
          <mxGeometry width="50" height="50" relative="1" as="geometry">
            <mxPoint x="-70" y="280" as="sourcePoint" />
            <mxPoint x="-20" y="230" as="targetPoint" />
          </mxGeometry>
        </mxCell>
        <mxCell id="LQCwbnCenOOeZ457Ust4-58" value="" style="endArrow=none;html=1;rounded=0;entryX=0.5;entryY=1;entryDx=0;entryDy=0;exitX=0.5;exitY=0;exitDx=0;exitDy=0;" parent="1" source="LQCwbnCenOOeZ457Ust4-46" target="LQCwbnCenOOeZ457Ust4-49" edge="1">
          <mxGeometry width="50" height="50" relative="1" as="geometry">
            <mxPoint x="-100" y="300" as="sourcePoint" />
            <mxPoint x="-20" y="230" as="targetPoint" />
          </mxGeometry>
        </mxCell>
        <mxCell id="LQCwbnCenOOeZ457Ust4-59" value="" style="endArrow=none;html=1;rounded=0;entryX=0;entryY=0.5;entryDx=0;entryDy=0;exitX=0.5;exitY=0;exitDx=0;exitDy=0;" parent="1" source="LQCwbnCenOOeZ457Ust4-46" target="LQCwbnCenOOeZ457Ust4-48" edge="1">
          <mxGeometry width="50" height="50" relative="1" as="geometry">
            <mxPoint x="-100" y="300" as="sourcePoint" />
            <mxPoint x="-20" y="230" as="targetPoint" />
          </mxGeometry>
        </mxCell>
        <mxCell id="LQCwbnCenOOeZ457Ust4-60" value="" style="endArrow=none;html=1;rounded=0;exitX=0.5;exitY=0;exitDx=0;exitDy=0;" parent="1" source="LQCwbnCenOOeZ457Ust4-46" edge="1">
          <mxGeometry width="50" height="50" relative="1" as="geometry">
            <mxPoint x="-100" y="300" as="sourcePoint" />
            <mxPoint x="-20" y="230" as="targetPoint" />
          </mxGeometry>
        </mxCell>
        <mxCell id="LQCwbnCenOOeZ457Ust4-61" value="m" style="endArrow=none;html=1;rounded=0;exitX=1;exitY=0.5;exitDx=0;exitDy=0;" parent="1" source="LQCwbnCenOOeZ457Ust4-46" target="LQCwbnCenOOeZ457Ust4-62" edge="1">
          <mxGeometry width="50" height="50" relative="1" as="geometry">
            <mxPoint x="-70" y="280" as="sourcePoint" />
            <mxPoint x="80" y="330" as="targetPoint" />
          </mxGeometry>
        </mxCell>
        <mxCell id="LQCwbnCenOOeZ457Ust4-62" value="Belongsto" style="rhombus;whiteSpace=wrap;html=1;" parent="1" vertex="1">
          <mxGeometry x="90" y="290" width="80" height="80" as="geometry" />
        </mxCell>
        <mxCell id="LQCwbnCenOOeZ457Ust4-63" value="m" style="endArrow=none;html=1;rounded=0;exitX=1;exitY=0.5;exitDx=0;exitDy=0;entryX=0;entryY=0.5;entryDx=0;entryDy=0;" parent="1" source="LQCwbnCenOOeZ457Ust4-62" target="LQCwbnCenOOeZ457Ust4-1" edge="1">
          <mxGeometry width="50" height="50" relative="1" as="geometry">
            <mxPoint x="-70" y="280" as="sourcePoint" />
            <mxPoint x="-20" y="230" as="targetPoint" />
          </mxGeometry>
        </mxCell>
        <mxCell id="LQCwbnCenOOeZ457Ust4-64" value="Trainers" style="rounded=0;whiteSpace=wrap;html=1;" parent="1" vertex="1">
          <mxGeometry x="-160" y="670" width="120" height="60" as="geometry" />
        </mxCell>
        <mxCell id="LQCwbnCenOOeZ457Ust4-66" value="experience_years" style="ellipse;whiteSpace=wrap;html=1;" parent="1" vertex="1">
          <mxGeometry x="40" y="760" width="120" height="60" as="geometry" />
        </mxCell>
        <mxCell id="LQCwbnCenOOeZ457Ust4-67" value="t_name" style="ellipse;whiteSpace=wrap;html=1;" parent="1" vertex="1">
          <mxGeometry x="-160" y="810" width="80" height="50" as="geometry" />
        </mxCell>
        <mxCell id="LQCwbnCenOOeZ457Ust4-68" value="specialization" style="ellipse;whiteSpace=wrap;html=1;" parent="1" vertex="1">
          <mxGeometry x="-60" y="800" width="90" height="60" as="geometry" />
        </mxCell>
        <mxCell id="LQCwbnCenOOeZ457Ust4-69" value="trainerid" style="ellipse;whiteSpace=wrap;html=1;fontStyle=4" parent="1" vertex="1">
          <mxGeometry x="-255" y="770" width="90" height="60" as="geometry" />
        </mxCell>
        <mxCell id="LQCwbnCenOOeZ457Ust4-71" value="" style="endArrow=none;html=1;rounded=0;exitX=0.5;exitY=1;exitDx=0;exitDy=0;entryX=0.98;entryY=0.283;entryDx=0;entryDy=0;entryPerimeter=0;" parent="1" source="LQCwbnCenOOeZ457Ust4-64" target="LQCwbnCenOOeZ457Ust4-69" edge="1">
          <mxGeometry width="50" height="50" relative="1" as="geometry">
            <mxPoint x="30" y="820" as="sourcePoint" />
            <mxPoint x="80" y="770" as="targetPoint" />
          </mxGeometry>
        </mxCell>
        <mxCell id="LQCwbnCenOOeZ457Ust4-72" value="" style="endArrow=none;html=1;rounded=0;exitX=0.5;exitY=1;exitDx=0;exitDy=0;entryX=0.5;entryY=0;entryDx=0;entryDy=0;" parent="1" source="LQCwbnCenOOeZ457Ust4-64" target="LQCwbnCenOOeZ457Ust4-67" edge="1">
          <mxGeometry width="50" height="50" relative="1" as="geometry">
            <mxPoint x="30" y="820" as="sourcePoint" />
            <mxPoint x="80" y="770" as="targetPoint" />
          </mxGeometry>
        </mxCell>
        <mxCell id="LQCwbnCenOOeZ457Ust4-73" value="" style="endArrow=none;html=1;rounded=0;exitX=0.5;exitY=1;exitDx=0;exitDy=0;entryX=0.5;entryY=0;entryDx=0;entryDy=0;" parent="1" source="LQCwbnCenOOeZ457Ust4-64" target="LQCwbnCenOOeZ457Ust4-68" edge="1">
          <mxGeometry width="50" height="50" relative="1" as="geometry">
            <mxPoint x="-100" y="730" as="sourcePoint" />
            <mxPoint x="80" y="770" as="targetPoint" />
          </mxGeometry>
        </mxCell>
        <mxCell id="LQCwbnCenOOeZ457Ust4-76" value="" style="endArrow=none;html=1;rounded=0;exitX=0.5;exitY=1;exitDx=0;exitDy=0;entryX=0;entryY=0;entryDx=0;entryDy=0;" parent="1" source="LQCwbnCenOOeZ457Ust4-64" target="LQCwbnCenOOeZ457Ust4-66" edge="1">
          <mxGeometry width="50" height="50" relative="1" as="geometry">
            <mxPoint x="30" y="820" as="sourcePoint" />
            <mxPoint x="80" y="770" as="targetPoint" />
          </mxGeometry>
        </mxCell>
        <mxCell id="LQCwbnCenOOeZ457Ust4-77" value="m" style="endArrow=none;html=1;rounded=0;exitX=0.5;exitY=0;exitDx=0;exitDy=0;" parent="1" source="LQCwbnCenOOeZ457Ust4-64" target="LQCwbnCenOOeZ457Ust4-78" edge="1">
          <mxGeometry width="50" height="50" relative="1" as="geometry">
            <mxPoint x="30" y="560" as="sourcePoint" />
            <mxPoint x="-100" y="560" as="targetPoint" />
          </mxGeometry>
        </mxCell>
        <mxCell id="LQCwbnCenOOeZ457Ust4-78" value="Belongsto" style="rhombus;whiteSpace=wrap;html=1;" parent="1" vertex="1">
          <mxGeometry x="-145" y="490" width="90" height="80" as="geometry" />
        </mxCell>
        <mxCell id="LQCwbnCenOOeZ457Ust4-79" value="m" style="endArrow=none;html=1;rounded=0;exitX=0.5;exitY=0;exitDx=0;exitDy=0;entryX=0.5;entryY=1;entryDx=0;entryDy=0;" parent="1" source="LQCwbnCenOOeZ457Ust4-78" target="LQCwbnCenOOeZ457Ust4-46" edge="1">
          <mxGeometry width="50" height="50" relative="1" as="geometry">
            <mxPoint x="30" y="480" as="sourcePoint" />
            <mxPoint x="80" y="430" as="targetPoint" />
          </mxGeometry>
        </mxCell>
        <mxCell id="LQCwbnCenOOeZ457Ust4-80" value="" style="endArrow=none;html=1;rounded=0;exitX=0.5;exitY=0;exitDx=0;exitDy=0;entryX=0;entryY=1;entryDx=0;entryDy=0;" parent="1" source="LQCwbnCenOOeZ457Ust4-3" target="LQCwbnCenOOeZ457Ust4-1" edge="1">
          <mxGeometry width="50" height="50" relative="1" as="geometry">
            <mxPoint x="30" y="300" as="sourcePoint" />
            <mxPoint x="80" y="250" as="targetPoint" />
          </mxGeometry>
        </mxCell>
        <mxCell id="LQCwbnCenOOeZ457Ust4-82" value="Payments" style="rounded=0;whiteSpace=wrap;html=1;" parent="1" vertex="1">
          <mxGeometry x="340" y="570" width="120" height="60" as="geometry" />
        </mxCell>
        <mxCell id="LQCwbnCenOOeZ457Ust4-84" value="memberid" style="ellipse;whiteSpace=wrap;html=1;" parent="1" vertex="1">
          <mxGeometry x="220" y="620" width="95" height="60" as="geometry" />
        </mxCell>
        <mxCell id="LQCwbnCenOOeZ457Ust4-85" value="paymentMethod" style="ellipse;whiteSpace=wrap;html=1;" parent="1" vertex="1">
          <mxGeometry x="235" y="700" width="105" height="70" as="geometry" />
        </mxCell>
        <mxCell id="LQCwbnCenOOeZ457Ust4-86" value="paymentStatus" style="ellipse;whiteSpace=wrap;html=1;" parent="1" vertex="1">
          <mxGeometry x="300" y="780" width="100" height="70" as="geometry" />
        </mxCell>
        <mxCell id="LQCwbnCenOOeZ457Ust4-87" value="moneyPaid" style="ellipse;whiteSpace=wrap;html=1;" parent="1" vertex="1">
          <mxGeometry x="420" y="770" width="90" height="70" as="geometry" />
        </mxCell>
        <mxCell id="LQCwbnCenOOeZ457Ust4-88" value="loan" style="ellipse;whiteSpace=wrap;html=1;" parent="1" vertex="1">
          <mxGeometry x="485" y="730" width="90" height="50" as="geometry" />
        </mxCell>
        <mxCell id="LQCwbnCenOOeZ457Ust4-89" value="datePay" style="ellipse;whiteSpace=wrap;html=1;" parent="1" vertex="1">
          <mxGeometry x="485" y="660" width="90" height="50" as="geometry" />
        </mxCell>
        <mxCell id="LQCwbnCenOOeZ457Ust4-90" value="paymentid" style="ellipse;whiteSpace=wrap;html=1;" parent="1" vertex="1">
          <mxGeometry x="500" y="570" width="90" height="70" as="geometry" />
        </mxCell>
        <mxCell id="LQCwbnCenOOeZ457Ust4-91" value="" style="endArrow=none;html=1;rounded=0;entryX=0;entryY=0.5;entryDx=0;entryDy=0;exitX=1;exitY=0.5;exitDx=0;exitDy=0;" parent="1" source="LQCwbnCenOOeZ457Ust4-84" target="LQCwbnCenOOeZ457Ust4-82" edge="1">
          <mxGeometry width="50" height="50" relative="1" as="geometry">
            <mxPoint x="270" y="650" as="sourcePoint" />
            <mxPoint x="320" y="600" as="targetPoint" />
          </mxGeometry>
        </mxCell>
        <mxCell id="LQCwbnCenOOeZ457Ust4-92" value="" style="endArrow=none;html=1;rounded=0;entryX=0.5;entryY=1;entryDx=0;entryDy=0;exitX=1;exitY=0;exitDx=0;exitDy=0;" parent="1" source="LQCwbnCenOOeZ457Ust4-85" target="LQCwbnCenOOeZ457Ust4-82" edge="1">
          <mxGeometry width="50" height="50" relative="1" as="geometry">
            <mxPoint x="270" y="650" as="sourcePoint" />
            <mxPoint x="320" y="600" as="targetPoint" />
          </mxGeometry>
        </mxCell>
        <mxCell id="LQCwbnCenOOeZ457Ust4-94" value="" style="endArrow=none;html=1;rounded=0;entryX=0.5;entryY=1;entryDx=0;entryDy=0;exitX=0.5;exitY=0;exitDx=0;exitDy=0;" parent="1" source="LQCwbnCenOOeZ457Ust4-86" target="LQCwbnCenOOeZ457Ust4-82" edge="1">
          <mxGeometry width="50" height="50" relative="1" as="geometry">
            <mxPoint x="270" y="650" as="sourcePoint" />
            <mxPoint x="320" y="600" as="targetPoint" />
          </mxGeometry>
        </mxCell>
        <mxCell id="LQCwbnCenOOeZ457Ust4-95" value="" style="endArrow=none;html=1;rounded=0;entryX=0.5;entryY=1;entryDx=0;entryDy=0;exitX=0;exitY=0;exitDx=0;exitDy=0;" parent="1" source="LQCwbnCenOOeZ457Ust4-87" target="LQCwbnCenOOeZ457Ust4-82" edge="1">
          <mxGeometry width="50" height="50" relative="1" as="geometry">
            <mxPoint x="270" y="650" as="sourcePoint" />
            <mxPoint x="320" y="600" as="targetPoint" />
          </mxGeometry>
        </mxCell>
        <mxCell id="LQCwbnCenOOeZ457Ust4-96" value="" style="endArrow=none;html=1;rounded=0;entryX=0.5;entryY=1;entryDx=0;entryDy=0;" parent="1" source="LQCwbnCenOOeZ457Ust4-88" target="LQCwbnCenOOeZ457Ust4-82" edge="1">
          <mxGeometry width="50" height="50" relative="1" as="geometry">
            <mxPoint x="270" y="650" as="sourcePoint" />
            <mxPoint x="320" y="600" as="targetPoint" />
          </mxGeometry>
        </mxCell>
        <mxCell id="LQCwbnCenOOeZ457Ust4-98" value="" style="endArrow=none;html=1;rounded=0;entryX=0.5;entryY=1;entryDx=0;entryDy=0;exitX=0;exitY=0;exitDx=0;exitDy=0;" parent="1" source="LQCwbnCenOOeZ457Ust4-89" target="LQCwbnCenOOeZ457Ust4-82" edge="1">
          <mxGeometry width="50" height="50" relative="1" as="geometry">
            <mxPoint x="270" y="650" as="sourcePoint" />
            <mxPoint x="320" y="600" as="targetPoint" />
          </mxGeometry>
        </mxCell>
        <mxCell id="LQCwbnCenOOeZ457Ust4-99" value="" style="endArrow=none;html=1;rounded=0;entryX=1;entryY=0.5;entryDx=0;entryDy=0;exitX=0.001;exitY=0.416;exitDx=0;exitDy=0;exitPerimeter=0;" parent="1" source="LQCwbnCenOOeZ457Ust4-90" target="LQCwbnCenOOeZ457Ust4-82" edge="1">
          <mxGeometry width="50" height="50" relative="1" as="geometry">
            <mxPoint x="270" y="650" as="sourcePoint" />
            <mxPoint x="320" y="600" as="targetPoint" />
          </mxGeometry>
        </mxCell>
        <mxCell id="LQCwbnCenOOeZ457Ust4-100" value="m" style="endArrow=none;html=1;rounded=0;exitX=0.5;exitY=0;exitDx=0;exitDy=0;" parent="1" source="LQCwbnCenOOeZ457Ust4-82" target="LQCwbnCenOOeZ457Ust4-101" edge="1">
          <mxGeometry width="50" height="50" relative="1" as="geometry">
            <mxPoint x="270" y="480" as="sourcePoint" />
            <mxPoint x="400" y="470" as="targetPoint" />
          </mxGeometry>
        </mxCell>
        <mxCell id="LQCwbnCenOOeZ457Ust4-101" value="Belongsto" style="rhombus;whiteSpace=wrap;html=1;" parent="1" vertex="1">
          <mxGeometry x="360" y="435" width="80" height="80" as="geometry" />
        </mxCell>
        <mxCell id="LQCwbnCenOOeZ457Ust4-102" value="1" style="endArrow=none;html=1;rounded=0;exitX=0.5;exitY=0;exitDx=0;exitDy=0;entryX=0.5;entryY=1;entryDx=0;entryDy=0;" parent="1" source="LQCwbnCenOOeZ457Ust4-101" target="LQCwbnCenOOeZ457Ust4-1" edge="1">
          <mxGeometry width="50" height="50" relative="1" as="geometry">
            <mxPoint x="270" y="480" as="sourcePoint" />
            <mxPoint x="320" y="430" as="targetPoint" />
          </mxGeometry>
        </mxCell>
      </root>
    </mxGraphModel>
  </diagram>
</mxfile>
